<?xml version="1.0" encoding="UTF-8" standalone="no"?>
<!-- Created with Inkscape (http://www.inkscape.org/) -->

<svg
   xmlns:dc="http://purl.org/dc/elements/1.1/"
   xmlns:cc="http://creativecommons.org/ns#"
   xmlns:rdf="http://www.w3.org/1999/02/22-rdf-syntax-ns#"
   xmlns:svg="http://www.w3.org/2000/svg"
   xmlns="http://www.w3.org/2000/svg"
   xmlns:sodipodi="http://sodipodi.sourceforge.net/DTD/sodipodi-0.dtd"
   xmlns:inkscape="http://www.inkscape.org/namespaces/inkscape"
   width="413.06247"
   height="90.185966"
   viewBox="0 0 413.06248 90.185966"
   id="svg2"
   version="1.1"
   inkscape:version="0.91 r13725"
   sodipodi:docname="evaluator.svg">
  <defs
     id="defs4" />
  <sodipodi:namedview
     id="base"
     pagecolor="#ffffff"
     bordercolor="#666666"
     borderopacity="1.0"
     inkscape:pageopacity="0.0"
     inkscape:pageshadow="2"
     inkscape:zoom="0.99"
     inkscape:cx="392.23412"
     inkscape:cy="-60.849376"
     inkscape:document-units="px"
     inkscape:current-layer="layer1"
     showgrid="false"
     units="px"
     inkscape:window-width="1024"
     inkscape:window-height="550"
     inkscape:window-x="0"
     inkscape:window-y="25"
     inkscape:window-maximized="1"
     showguides="true"
     fit-margin-top="0"
     fit-margin-left="0"
     fit-margin-right="0"
     fit-margin-bottom="0">
    <inkscape:grid
       type="xygrid"
       id="grid3356"
       originx="-1.3541902"
       originy="-208.82917" />
  </sodipodi:namedview>
  <metadata
     id="metadata7">
    <rdf:RDF>
      <cc:Work
         rdf:about="">
        <dc:format>image/svg+xml</dc:format>
        <dc:type
           rdf:resource="http://purl.org/dc/dcmitype/StillImage" />
        <dc:title></dc:title>
      </cc:Work>
    </rdf:RDF>
  </metadata>
  <g
     inkscape:label="Layer 1"
     inkscape:groupmode="layer"
     id="layer1"
     transform="translate(-1.3541902,-753.34705)">
    <g
       id="g4251"
       transform="translate(-41.134629,10.253759)">
      <path
         inkscape:connector-curvature="0"
         id="path4318"
         d="m 410,787.36219 -15,35 35,0 z"
         style="fill:#ff00ff;fill-opacity:1;fill-rule:evenodd;stroke:#000000;stroke-width:2;stroke-linecap:butt;stroke-linejoin:miter;stroke-miterlimit:4;stroke-dasharray:none;stroke-opacity:1" />
      <circle
         r="7.5"
         cy="779.86218"
         cx="410.5"
         id="path4320"
         style="fill:#ff6300;fill-opacity:1;stroke:#000000;stroke-width:2;stroke-linejoin:miter;stroke-miterlimit:4;stroke-dasharray:none;stroke-opacity:1" />
      <path
         transform="matrix(0.52499201,0.17412157,-0.17412157,0.52499201,335.90033,301.57593)"
         inkscape:transform-center-y="-0.18180365"
         inkscape:transform-center-x="-0.19632401"
         d="m 415,817.36218 -4.44692,-1.50799 -3.76328,2.80836 0.06,-4.69527 -3.83383,-2.71126 4.48401,-1.39384 1.39384,-4.48401 2.71126,3.83383 4.69527,-0.06 -2.80836,3.76328 z"
         inkscape:randomized="0"
         inkscape:rounded="0"
         inkscape:flatsided="false"
         sodipodi:arg2="1.4137167"
         sodipodi:arg1="0.78539816"
         sodipodi:r2="3.5355339"
         sodipodi:r1="7.0710678"
         sodipodi:cy="812.36218"
         sodipodi:cx="410"
         sodipodi:sides="5"
         id="path4162-3-7"
         style="fill:#00ffff;fill-opacity:1;stroke:#000000;stroke-width:1.80794609;stroke-linejoin:miter;stroke-miterlimit:4;stroke-dasharray:none;stroke-opacity:1"
         sodipodi:type="star" />
      <path
         inkscape:connector-curvature="0"
         id="path4324"
         d="m 411.52471,792.8869 20,-5 0,15 z"
         style="fill:#ff00ff;fill-opacity:1;fill-rule:evenodd;stroke:#000000;stroke-width:2;stroke-linecap:butt;stroke-linejoin:miter;stroke-miterlimit:4;stroke-dasharray:none;stroke-opacity:1" />
      <path
         sodipodi:nodetypes="cc"
         inkscape:connector-curvature="0"
         id="path4326"
         d="m 431.76235,789.79755 11.18822,-2.13879"
         style="fill:none;fill-rule:evenodd;stroke:#000000;stroke-width:2;stroke-linecap:butt;stroke-linejoin:miter;stroke-miterlimit:4;stroke-dasharray:none;stroke-opacity:1" />
      <path
         inkscape:transform-center-y="-0.34182185"
         inkscape:transform-center-x="0.34182185"
         d="m 452.23764,791.14673 -4.44692,-1.508 -3.76328,2.80837 0.06,-4.69527 -3.83383,-2.71126 4.48401,-1.39384 1.39384,-4.48401 2.71126,3.83382 4.69527,-0.06 -2.80836,3.76328 z"
         inkscape:randomized="0"
         inkscape:rounded="0"
         inkscape:flatsided="false"
         sodipodi:arg2="1.4137167"
         sodipodi:arg1="0.78539816"
         sodipodi:r2="3.5355339"
         sodipodi:r1="7.0710678"
         sodipodi:cy="786.14673"
         sodipodi:cx="447.23764"
         sodipodi:sides="5"
         id="path4328"
         style="fill:#00ff00;fill-opacity:1;stroke:#000000;stroke-width:2;stroke-linejoin:miter;stroke-miterlimit:4;stroke-dasharray:none;stroke-opacity:1"
         sodipodi:type="star" />
      <path
         sodipodi:nodetypes="cc"
         inkscape:connector-curvature="0"
         id="path4330"
         d="m 409.76236,781.8869 c 0.33808,2.52216 2.26147,4.29237 5,5"
         style="fill:none;fill-rule:evenodd;stroke:#000000;stroke-width:1px;stroke-linecap:butt;stroke-linejoin:miter;stroke-opacity:1" />
      <path
         sodipodi:nodetypes="cc"
         inkscape:connector-curvature="0"
         id="path4332"
         d="m 412.38593,774.27284 3.327,4.04943"
         style="fill:none;fill-rule:evenodd;stroke:#000000;stroke-width:3;stroke-linecap:butt;stroke-linejoin:miter;stroke-miterlimit:4;stroke-dasharray:none;stroke-opacity:1" />
      <path
         inkscape:connector-curvature="0"
         id="path4322"
         d="m 405,772.36219 15,5 -5,-25 z"
         style="fill:#ff00ff;fill-opacity:1;fill-rule:evenodd;stroke:#000000;stroke-width:2;stroke-linecap:butt;stroke-linejoin:miter;stroke-miterlimit:4;stroke-dasharray:none;stroke-opacity:1" />
      <circle
         r="0.5"
         cy="778.86218"
         cx="413.5"
         id="path4336"
         style="fill:#ffffff;fill-opacity:1;stroke:#000000;stroke-width:2;stroke-linejoin:miter;stroke-miterlimit:4;stroke-dasharray:none;stroke-opacity:1" />
      <path
         transform="matrix(0.96464858,-0.26353959,0.26353959,0.96464858,-195.79324,134.86825)"
         inkscape:transform-center-y="0.23902883"
         inkscape:transform-center-x="0.4438518"
         d="m 415,817.36218 -4.44692,-1.50799 -3.76328,2.80836 0.06,-4.69527 -3.83383,-2.71126 4.48401,-1.39384 1.39384,-4.48401 2.71126,3.83383 4.69527,-0.06 -2.80836,3.76328 z"
         inkscape:randomized="0"
         inkscape:rounded="0"
         inkscape:flatsided="false"
         sodipodi:arg2="1.4137167"
         sodipodi:arg1="0.78539816"
         sodipodi:r2="3.5355339"
         sodipodi:r1="7.0710678"
         sodipodi:cy="812.36218"
         sodipodi:cx="410"
         sodipodi:sides="5"
         id="path4162"
         style="fill:#00ffff;fill-opacity:1;stroke:#000000;stroke-width:1;stroke-linejoin:miter;stroke-miterlimit:4;stroke-dasharray:none;stroke-opacity:1"
         sodipodi:type="star" />
      <path
         transform="matrix(0.52499201,0.17412157,-0.17412157,0.52499201,331.04292,317.04171)"
         inkscape:transform-center-y="-0.18180365"
         inkscape:transform-center-x="-0.19632401"
         d="m 415,817.36218 -4.44692,-1.50799 -3.76328,2.80836 0.06,-4.69527 -3.83383,-2.71126 4.48401,-1.39384 1.39384,-4.48401 2.71126,3.83383 4.69527,-0.06 -2.80836,3.76328 z"
         inkscape:randomized="0"
         inkscape:rounded="0"
         inkscape:flatsided="false"
         sodipodi:arg2="1.4137167"
         sodipodi:arg1="0.78539816"
         sodipodi:r2="3.5355339"
         sodipodi:r1="7.0710678"
         sodipodi:cy="812.36218"
         sodipodi:cx="410"
         sodipodi:sides="5"
         id="path4162-3"
         style="fill:#00ffff;fill-opacity:1;stroke:#000000;stroke-width:1.80794609;stroke-linejoin:miter;stroke-miterlimit:4;stroke-dasharray:none;stroke-opacity:1"
         sodipodi:type="star" />
      <path
         transform="matrix(0.55169771,0.03955464,-0.03955464,0.55169771,227.48943,352.70766)"
         inkscape:transform-center-y="-0.27395835"
         inkscape:transform-center-x="0.10322203"
         d="m 415,817.36218 -4.44692,-1.50799 -3.76328,2.80836 0.06,-4.69527 -3.83383,-2.71126 4.48401,-1.39384 1.39384,-4.48401 2.71126,3.83383 4.69527,-0.06 -2.80836,3.76328 z"
         inkscape:randomized="0"
         inkscape:rounded="0"
         inkscape:flatsided="false"
         sodipodi:arg2="1.4137167"
         sodipodi:arg1="0.78539816"
         sodipodi:r2="3.5355339"
         sodipodi:r1="7.0710678"
         sodipodi:cy="812.36218"
         sodipodi:cx="410"
         sodipodi:sides="5"
         id="path4162-3-6"
         style="fill:#00ffff;fill-opacity:1;stroke:#000000;stroke-width:1.80794609;stroke-linejoin:miter;stroke-miterlimit:4;stroke-dasharray:none;stroke-opacity:1"
         sodipodi:type="star" />
      <path
         transform="matrix(0.41374572,0.10360307,-0.10360307,0.41374572,342.91762,418.45489)"
         inkscape:transform-center-y="-0.20874388"
         inkscape:transform-center-x="-0.082168172"
         d="m 415,817.36218 -4.44692,-1.50799 -3.76328,2.80836 0.06,-4.69527 -3.83383,-2.71126 4.48401,-1.39384 1.39384,-4.48401 2.71126,3.83383 4.69527,-0.06 -2.80836,3.76328 z"
         inkscape:randomized="0"
         inkscape:rounded="0"
         inkscape:flatsided="false"
         sodipodi:arg2="1.4137167"
         sodipodi:arg1="0.78539816"
         sodipodi:r2="3.5355339"
         sodipodi:r1="7.0710678"
         sodipodi:cy="812.36218"
         sodipodi:cx="410"
         sodipodi:sides="5"
         id="path4162-3-6-5"
         style="fill:#00ffff;fill-opacity:1;stroke:#000000;stroke-width:2.34455729;stroke-linejoin:miter;stroke-miterlimit:4;stroke-dasharray:none;stroke-opacity:1"
         sodipodi:type="star" />
      <path
         transform="matrix(0.37121545,0.21004334,-0.21004334,0.37121545,433.77175,384.19326)"
         inkscape:transform-center-y="0.040674886"
         inkscape:transform-center-x="-0.24902547"
         d="m 415,817.36218 -4.44692,-1.50799 -3.76328,2.80836 0.06,-4.69527 -3.83383,-2.71126 4.48401,-1.39384 1.39384,-4.48401 2.71126,3.83383 4.69527,-0.06 -2.80836,3.76328 z"
         inkscape:randomized="0"
         inkscape:rounded="0"
         inkscape:flatsided="false"
         sodipodi:arg2="1.4137167"
         sodipodi:arg1="0.78539816"
         sodipodi:r2="3.5355339"
         sodipodi:r1="7.0710678"
         sodipodi:cy="812.36218"
         sodipodi:cx="410"
         sodipodi:sides="5"
         id="path4162-3-6-5-5"
         style="fill:#00ffff;fill-opacity:1;stroke:#000000;stroke-width:2.34455729;stroke-linejoin:miter;stroke-miterlimit:4;stroke-dasharray:none;stroke-opacity:1"
         sodipodi:type="star" />
      <path
         transform="matrix(0.37121545,0.21004334,-0.21004334,0.37121545,431.1862,375.87577)"
         inkscape:transform-center-y="7.8828804"
         inkscape:transform-center-x="-20.923931"
         d="m 415,817.36218 -4.44692,-1.50799 -3.76328,2.80836 0.06,-4.69527 -3.83383,-2.71126 4.48401,-1.39384 1.39384,-4.48401 2.71126,3.83383 4.69527,-0.06 -2.80836,3.76328 z"
         inkscape:randomized="0"
         inkscape:rounded="0"
         inkscape:flatsided="false"
         sodipodi:arg2="1.4137167"
         sodipodi:arg1="0.78539816"
         sodipodi:r2="3.5355339"
         sodipodi:r1="7.0710678"
         sodipodi:cy="812.36218"
         sodipodi:cx="410"
         sodipodi:sides="5"
         id="path4162-3-6-5-5-6"
         style="fill:#00ffff;fill-opacity:1;stroke:#000000;stroke-width:2.34455729;stroke-linejoin:miter;stroke-miterlimit:4;stroke-dasharray:none;stroke-opacity:1"
         sodipodi:type="star" />
    </g>
    <path
       style="fill:none;fill-rule:evenodd;stroke:#005e00;stroke-width:2;stroke-linecap:butt;stroke-linejoin:miter;stroke-miterlimit:4;stroke-dasharray:none;stroke-opacity:1"
       d="m 29.208777,842.50268 28.65058,-0.73463 -9.5502,-47.75097 17.63113,2.93853 -3.67315,10.28482 4.40778,-0.73463 -0.73463,-11.75409 8.81557,7.3463 2.20389,-5.87703 -11.01946,-0.73464 8.81557,-7.3463 -4.40778,-3.67315 -5.14241,8.81556 -14.69261,-8.08093 8.81556,-15.42724 4.40779,10.28482 5.1424,-3.67314 -8.81556,-5.87705 10.28483,-5.87704 -5.14241,-6.61168 -5.14242,11.01946 -8.81556,-11.75409 -4.40779,5.14242 12.48872,8.08093 -16.16186,8.08093 -12.48872,-11.01945 12.48872,2.93852 -1.46926,-8.08093 -11.01946,4.40778 2.93852,-12.48871 -7.34631,0 5.14242,13.95797 -16.16187,-5.87704 0,7.3463 15.42724,-2.20389 4.40778,15.42723 -15.42723,2.93853 4.40777,-13.95798 -5.14241,-0.73463 0,13.95798 -13.22334,-9.55019 -2.93853,6.61167 16.16187,3.67315 -10.28482,11.01946 5.87704,2.20388 5.87705,-12.48871 16.16186,8.08094 z"
       id="path4180"
       inkscape:connector-curvature="0"
       sodipodi:nodetypes="cccccccccccccccccccccccccccccccccccccccccccccccc" />
    <g
       transform="translate(-4.8871329,-2.2745441)"
       id="g4464-2-3">
      <rect
         y="765.10571"
         x="144.25378"
         height="74.011528"
         width="157.63033"
         id="rect3336-2-5"
         style="fill:#00ffff;fill-opacity:1;fill-rule:evenodd;stroke:#000000;stroke-width:1.85211182;stroke-linecap:butt;stroke-linejoin:miter;stroke-miterlimit:4;stroke-dasharray:none;stroke-opacity:1" />
      <text
         sodipodi:linespacing="125%"
         id="text3338-2-29-2-8-6"
         y="811.53381"
         x="150.9877"
         style="font-style:normal;font-weight:normal;font-size:40px;line-height:125%;font-family:sans-serif;letter-spacing:0px;word-spacing:0px;fill:#000000;fill-opacity:1;stroke:none;stroke-width:1px;stroke-linecap:butt;stroke-linejoin:miter;stroke-opacity:1"
         xml:space="preserve"><tspan
           style="font-size:30px"
           y="811.53381"
           x="150.9877"
           id="tspan3340-8-1-0-9-2"
           sodipodi:role="line">Evaluator</tspan></text>
    </g>
    <path
       style="fill:#ff4ec7;fill-opacity:1;fill-rule:evenodd;stroke:#000000;stroke-width:2;stroke-linecap:butt;stroke-linejoin:miter;stroke-miterlimit:4;stroke-dasharray:none;stroke-opacity:1"
       d="m 85.684344,787.88849 29.608096,3.55894 -1.08269,-13.7179 18.43236,20.003 -18.81619,16.70682 1.55388,-12.98582 -29.916069,2.10451 z"
       id="path3354-9-5-9"
       inkscape:connector-curvature="0"
       sodipodi:nodetypes="cccccccc"
       inkscape:transform-center-x="-3.0284611"
       inkscape:transform-center-y="-1.1147184" />
    <path
       style="fill:#ff4ec7;fill-opacity:1;fill-rule:evenodd;stroke:#000000;stroke-width:2;stroke-linecap:butt;stroke-linejoin:miter;stroke-miterlimit:4;stroke-dasharray:none;stroke-opacity:1"
       d="m 305.60827,789.88822 29.82119,-0.0407 -2.73047,-13.48695 20.71191,17.63208 -16.66216,18.85574 -0.0248,-13.07846 -29.44337,5.69988 z"
       id="path3354-9-5-9-1"
       inkscape:connector-curvature="0"
       sodipodi:nodetypes="cccccccc"
       inkscape:transform-center-x="-12.687137"
       inkscape:transform-center-y="8.0296319" />
  </g>
</svg>
